<svg aria-hidden="true" style="position: absolute; width: 0; height: 0; overflow: hidden;" version="1.1" xmlns="http://www.w3.org/2000/svg" xmlns:xlink="http://www.w3.org/1999/xlink">
<defs>
<symbol id="icon-ellipse" viewBox="0 0 32 32">
<path stroke-linejoin="miter" stroke-linecap="butt" stroke-miterlimit="4" stroke-width="1.7778" d="M31.111 16c0 8.346-6.765 15.111-15.111 15.111s-15.111-6.765-15.111-15.111c0-8.346 6.765-15.111 15.111-15.111s15.111 6.765 15.111 15.111z"></path>
</symbol>
<symbol id="icon-ellipse-accent" viewBox="0 0 32 32">
<path fill="#ff6b09" style="fill: var(--color1, #ff6b09)" d="M32 16c0 8.837-7.163 16-16 16s-16-7.163-16-16c0-8.837 7.163-16 16-16s16 7.163 16 16z"></path>
</symbol>
<symbol id="icon-logo" viewBox="0 0 32 32">
<path fill="none" stroke="#121d2e" style="stroke: var(--color2, #121d2e)" stroke-linejoin="miter" stroke-linecap="butt" stroke-miterlimit="4" stroke-width="0.2481" d="M32 12.527h-32v6.946h32v-6.946z"></path>
<path fill="#121d2e" style="fill: var(--color2, #121d2e)" d="M15.11 18.059h1.143v-0.515h-0.485v-2.918h0.485v-0.514h-1.143v3.948zM17.484 17.24h0.683v-2.395h0.945v-0.557h-2.572v0.557h0.945v2.395zM21.549 16.114c0.005-0.217-0.048-0.432-0.154-0.622-0.099-0.175-0.246-0.317-0.424-0.41-0.19-0.095-0.399-0.144-0.611-0.143s-0.421 0.052-0.61 0.15c-0.18 0.096-0.331 0.239-0.434 0.415-0.106 0.182-0.161 0.39-0.158 0.601-0.003 0.212 0.052 0.421 0.16 0.603 0.109 0.179 0.267 0.323 0.455 0.415 0.211 0.103 0.444 0.154 0.679 0.149 0.173 0.012 0.347-0.015 0.509-0.078s0.308-0.162 0.427-0.289l-0.35-0.38c-0.073 0.072-0.16 0.129-0.255 0.167-0.101 0.037-0.207 0.055-0.314 0.053-0.153 0.006-0.303-0.037-0.43-0.122-0.113-0.079-0.192-0.198-0.219-0.333h1.716c0.008-0.11 0.013-0.169 0.013-0.177l0 0.002zM20.373 15.435c0.136-0.004 0.268 0.042 0.372 0.129 0.102 0.088 0.168 0.21 0.186 0.344h-1.119c0.016-0.134 0.082-0.258 0.186-0.346 0.106-0.086 0.239-0.131 0.375-0.127zM22.878 17.274c0.196 0.004 0.391-0.027 0.576-0.091 0.145-0.049 0.272-0.137 0.369-0.255 0.084-0.107 0.128-0.239 0.127-0.375 0.008-0.141-0.038-0.28-0.131-0.388-0.084-0.090-0.19-0.157-0.308-0.192-0.15-0.042-0.302-0.075-0.455-0.099-0.123-0.015-0.244-0.042-0.363-0.080-0.033-0.008-0.062-0.027-0.083-0.055s-0.032-0.060-0.031-0.094c0.002-0.033 0.012-0.064 0.031-0.091s0.044-0.048 0.075-0.061c0.099-0.045 0.208-0.066 0.316-0.059 0.229-0.002 0.454 0.056 0.654 0.169l0.219-0.468c-0.123-0.069-0.256-0.118-0.394-0.145-0.157-0.035-0.318-0.053-0.479-0.053-0.192-0.004-0.383 0.027-0.563 0.093-0.143 0.050-0.269 0.14-0.363 0.259-0.083 0.11-0.126 0.244-0.124 0.382-0.010 0.145 0.038 0.287 0.133 0.397 0.086 0.091 0.194 0.158 0.314 0.194 0.151 0.043 0.304 0.075 0.46 0.097 0.119 0.011 0.236 0.035 0.35 0.072 0.032 0.007 0.060 0.025 0.081 0.050s0.032 0.057 0.033 0.089c0 0.138-0.139 0.207-0.418 0.207-0.143-0.001-0.285-0.021-0.422-0.061-0.129-0.035-0.253-0.088-0.367-0.158l-0.219 0.471c0.133 0.082 0.278 0.142 0.43 0.177 0.18 0.047 0.366 0.070 0.552 0.070v-0zM25.767 16.667c-0.076 0.057-0.17 0.087-0.266 0.084-0.038 0.002-0.077-0.003-0.113-0.017s-0.069-0.034-0.096-0.061c-0.053-0.061-0.079-0.141-0.074-0.222v-0.923h0.565v-0.506h-0.565v-0.553h-0.658v0.552h-0.349v0.507h0.35v0.932c-0.008 0.111 0.008 0.222 0.046 0.327s0.098 0.2 0.175 0.279c0.174 0.147 0.399 0.221 0.626 0.207 0.1 0 0.2-0.012 0.298-0.036 0.086-0.020 0.167-0.056 0.238-0.107l-0.177-0.463zM26.251 17.62h2.109v-0.38h-2.109v0.38zM29.827 18.059v-3.948h-1.139v0.514h0.481v2.918h-0.481v0.515h1.139z"></path>
<path fill="#121d2e" style="fill: var(--color2, #121d2e)" d="M0 12.527h11.481l1.914 3.612-1.914 3.334h-11.481v-6.946z"></path>
<path fill="#fff" style="fill: var(--color3, #fff)" d="M3.984 14.288h-1.278v2.952h0.683v-0.814h0.595c0.234 0.006 0.466-0.038 0.681-0.128 0.182-0.077 0.336-0.207 0.444-0.372 0.106-0.17 0.161-0.367 0.156-0.567 0.005-0.201-0.049-0.398-0.156-0.568-0.109-0.165-0.263-0.294-0.445-0.372-0.215-0.091-0.447-0.135-0.681-0.13zM3.946 15.87h-0.557v-1.025h0.557c0.167-0.012 0.333 0.035 0.469 0.133 0.054 0.047 0.097 0.106 0.125 0.172s0.040 0.138 0.036 0.209c0.004 0.071-0.008 0.142-0.036 0.207s-0.070 0.124-0.124 0.17c-0.136 0.097-0.301 0.144-0.468 0.133h-0.001zM6.46 15.271v-0.299h-0.628v2.269h0.658v-1.071c-0.007-0.086 0.004-0.172 0.032-0.254s0.071-0.157 0.128-0.221c0.059-0.055 0.129-0.097 0.205-0.124s0.157-0.039 0.237-0.034c0.025 0 0.074 0.003 0.148 0.008v-0.607c-0.158-0.003-0.315 0.026-0.462 0.084-0.127 0.051-0.238 0.137-0.318 0.248l-0 0.001zM8.816 17.274c0.223 0.004 0.443-0.047 0.641-0.149 0.183-0.095 0.336-0.239 0.443-0.415 0.108-0.182 0.164-0.391 0.16-0.603 0.004-0.212-0.052-0.421-0.159-0.603-0.106-0.177-0.26-0.32-0.443-0.415-0.2-0.098-0.419-0.15-0.642-0.15s-0.442 0.051-0.642 0.15c-0.184 0.094-0.338 0.238-0.445 0.415-0.108 0.182-0.164 0.391-0.16 0.603-0.003 0.212 0.052 0.421 0.16 0.603 0.107 0.177 0.261 0.321 0.445 0.415 0.199 0.102 0.42 0.153 0.643 0.149h-0.001zM8.816 16.734c-0.078 0.002-0.155-0.012-0.227-0.041s-0.137-0.074-0.191-0.13c-0.056-0.062-0.1-0.134-0.128-0.212s-0.041-0.162-0.037-0.245c-0.004-0.083 0.008-0.167 0.037-0.245s0.072-0.151 0.128-0.212c0.054-0.056 0.119-0.1 0.191-0.13s0.149-0.043 0.227-0.041c0.077-0.002 0.154 0.011 0.226 0.041s0.136 0.074 0.189 0.13c0.112 0.125 0.171 0.29 0.162 0.458 0.008 0.168-0.050 0.333-0.162 0.458-0.053 0.056-0.118 0.101-0.189 0.13s-0.149 0.043-0.226 0.041v-0z"></path>
</symbol>
<symbol id="icon-left-white" viewBox="0 0 32 32">
<path fill="#fff" style="fill: var(--color3, #fff)" d="M0.195 16.471l10 10c0.26 0.26 0.682 0.26 0.943 0s0.26-0.682 0-0.943l-8.862-8.862h29.057c0.369 0 0.667-0.298 0.667-0.667s-0.298-0.667-0.667-0.667h-29.057l8.862-8.862c0.26-0.26 0.26-0.682 0-0.943-0.13-0.13-0.301-0.195-0.471-0.195s-0.341 0.065-0.471 0.195l-10 10c-0.26 0.26-0.26 0.682 0 0.943z"></path>
</symbol>
<symbol id="icon-heart-accent" viewBox="0 0 32 32">
<path fill="#ff6b09" style="fill: var(--color1, #ff6b09)" d="M16 30.72l-2.24-2.24c-8.32-7.36-13.76-12.32-13.76-18.4 0-4.96 3.84-8.8 8.8-8.8 2.72 0 5.44 1.28 7.2 3.36 1.76-2.080 4.48-3.36 7.2-3.36 4.96 0 8.8 3.84 8.8 8.8 0 6.080-5.44 11.040-13.76 18.4l-2.24 2.24z"></path>
</symbol>
<symbol id="icon-sign-out" viewBox="0 0 32 32">
<path d="M25.293 9.293l-1.414 1.414 4.293 4.293h-14.172v2h14.172l-4.293 4.293 1.414 1.414 6.707-6.707-6.707-6.707z"></path>
<path d="M22 30h-20v-28h20v2h2v-3c0-0.553-0.447-1-1-1h-22c-0.553 0-1 0.447-1 1v30c0 0.553 0.447 1 1 1h22c0.553 0 1-0.447 1-1v-3h-2v2z"></path>
</symbol>
<symbol id="icon-left-black" viewBox="0 0 32 32">
<path d="M0.195 16.471l10 10c0.26 0.26 0.682 0.26 0.943 0s0.26-0.682 0-0.943l-8.862-8.862h29.057c0.369 0 0.667-0.298 0.667-0.667s-0.298-0.667-0.667-0.667h-29.057l8.862-8.862c0.26-0.26 0.26-0.682 0-0.943-0.13-0.13-0.301-0.195-0.471-0.195s-0.341 0.065-0.471 0.195l-10 10c-0.26 0.26-0.26 0.682 0 0.943z"></path>
</symbol>
<symbol id="icon-heart-b" viewBox="0 0 32 32">
<path d="M16 30.72l-2.24-2.24c-8.32-7.36-13.76-12.32-13.76-18.4 0-4.96 3.84-8.8 8.8-8.8 2.72 0 5.44 1.28 7.2 3.36 1.76-2.080 4.48-3.36 7.2-3.36 4.96 0 8.8 3.84 8.8 8.8 0 6.080-5.44 11.040-13.76 18.4l-2.24 2.24z"></path>
</symbol>
<symbol id="icon-right-white" viewBox="0 0 48 32">
<path fill="#fff" style="fill: var(--color3, #fff)" d="M47.707 15.293l-15-15c-0.391-0.391-1.023-0.391-1.414 0s-0.391 1.023 0 1.414l13.293 13.293h-43.586c-0.553 0-1 0.447-1 1s0.447 1 1 1h43.586l-13.293 13.293c-0.391 0.391-0.391 1.024 0 1.414 0.195 0.195 0.451 0.293 0.707 0.293s0.512-0.098 0.707-0.293l15-15c0.39-0.391 0.39-1.023-0-1.414z"></path>
</symbol>
<symbol id="icon-right-black" viewBox="0 0 32 32">
<path d="M31.805 15.529l-10-10c-0.26-0.26-0.682-0.26-0.943 0s-0.26 0.682 0 0.943l8.862 8.862h-29.057c-0.368 0-0.667 0.298-0.667 0.667s0.298 0.667 0.667 0.667h29.057l-8.862 8.862c-0.26 0.26-0.26 0.682 0 0.943 0.13 0.13 0.301 0.195 0.471 0.195s0.341-0.065 0.471-0.195l10-10c0.26-0.26 0.26-0.682 0-0.943z"></path>
</symbol>
<symbol id="icon-close" viewBox="0 0 32 32">
<path d="M25.333 8.547l-1.88-1.88-7.453 7.453-7.453-7.453-1.88 1.88 7.453 7.453-7.453 7.453 1.88 1.88 7.453-7.453 7.453 7.453 1.88-1.88-7.453-7.453 7.453-7.453z"></path>
</symbol>
<symbol id="icon-google" viewBox="0 0 32 32">
<path fill="#2196f3" style="fill: var(--color4, #2196f3)" d="M31.743 13.038c0.142 0 0.257 0.115 0.257 0.258v2.704c0 1.012-0.094 2.002-0.274 2.962-1.395 7.457-7.964 13.092-15.838 13.038-8.836-0.061-15.907-7.2-15.887-16.036 0.019-8.82 7.176-15.964 16-15.964 4.323 0 8.246 1.715 11.126 4.501 0.104 0.101 0.107 0.266 0.004 0.369l-3.826 3.826c-0.099 0.098-0.258 0.101-0.358 0.005-1.808-1.721-4.253-2.777-6.946-2.777-5.561 0-10.039 4.446-10.076 10.007-0.038 5.597 4.488 10.146 10.076 10.146 4.534 0 8.369-2.995 9.634-7.115h-9.376c-0.142 0-0.258-0.115-0.258-0.258v-5.408c0-0.142 0.115-0.258 0.258-0.258l15.485 0z"></path>
<path fill="#1e88e5" style="fill: var(--color5, #1e88e5)" d="M31.742 13.038h-1.932c0.142 0 0.258 0.115 0.258 0.258v2.704c0 1.012-0.094 2.002-0.274 2.962-1.331 7.114-7.371 12.57-14.761 13.009 0.283 0.017 0.567 0.026 0.854 0.028 7.874 0.054 14.444-5.581 15.839-13.038 0.18-0.96 0.274-1.95 0.274-2.962v-2.704c0-0.142-0.115-0.258-0.258-0.258z"></path>
<path fill="#f44336" style="fill: var(--color6, #f44336)" d="M6.848 11.78l-4.859-3.511c2.726-4.931 7.979-8.269 14.012-8.269 4.323 0 8.246 1.715 11.126 4.501 0.104 0.101 0.107 0.266 0.004 0.369l-3.826 3.826c-0.098 0.098-0.257 0.101-0.358 0.005-1.808-1.721-4.253-2.777-6.946-2.777-4.058 0-7.556 2.399-9.152 5.857z"></path>
<path fill="#e53935" style="fill: var(--color7, #e53935)" d="M5.445 10.767l1.403 1.014c1.457-3.156 4.499-5.429 8.104-5.802 0.027-0.003 0.053-0.006 0.081-0.009-0.317-0.030-0.639-0.046-0.964-0.046-3.666 0-6.861 1.933-8.624 4.843z"></path>
<path fill="#e53935" style="fill: var(--color7, #e53935)" d="M25.194 4.501c0.104 0.101 0.107 0.266 0.004 0.369l-3.105 3.105c0.297 0.226 0.582 0.468 0.852 0.726 0.101 0.096 0.26 0.094 0.359-0.005l3.826-3.826c0.102-0.102 0.1-0.268-0.004-0.369-2.88-2.786-6.803-4.501-11.126-4.501-0.324 0-0.646 0.011-0.966 0.030 3.94 0.235 7.496 1.894 10.16 4.471z"></path>
<path fill="#4caf50" style="fill: var(--color8, #4caf50)" d="M27.737 26.874c-2.922 3.153-7.099 5.126-11.737 5.126-6.264 0-11.687-3.6-14.314-8.844l4.961-3.4c1.489 3.704 5.116 6.32 9.353 6.32 2.659 0 5.078-1.030 6.878-2.713l4.859 3.51z"></path>
<path fill="#43a047" style="fill: var(--color9, #43a047)" d="M6.647 19.756l-1.463 1.003c1.699 3.165 5.040 5.318 8.884 5.318 0.325 0 0.646-0.016 0.964-0.046-3.816-0.364-7.011-2.855-8.385-6.274z"></path>
<path fill="#43a047" style="fill: var(--color9, #43a047)" d="M16 32c4.638 0 8.815-1.973 11.737-5.126l-1.19-0.86c-2.743 3.414-6.859 5.679-11.51 5.957 0.319 0.019 0.64 0.029 0.963 0.029z"></path>
<path fill="#ffc107" style="fill: var(--color10, #ffc107)" d="M5.924 16c0 1.328 0.257 2.595 0.724 3.756l-4.961 3.4c-1.079-2.153-1.686-4.584-1.686-7.156 0-2.804 0.721-5.439 1.988-7.731l4.859 3.511c-0.593 1.283-0.924 2.713-0.924 4.22z"></path>
<path fill="#ffb300" style="fill: var(--color11, #ffb300)" d="M5.184 20.759l1.463-1.003c-0.467-1.161-0.724-2.429-0.724-3.756 0-1.507 0.331-2.937 0.924-4.22l-1.403-1.014c-0.911 1.504-1.44 3.269-1.452 5.164-0.012 1.747 0.421 3.392 1.192 4.829z"></path>
</symbol>
<symbol id="icon-menu" viewBox="0 0 32 32">
<path d="M4 24h24v-2.667h-24v2.667zM4 17.333h24v-2.667h-24v2.667zM4 8v2.667h24v-2.667h-24z"></path>
</symbol>
</defs>
</svg>
