<svg aria-hidden="true" style="position: absolute; width: 0; height: 0; overflow: hidden;" version="1.1" xmlns="http://www.w3.org/2000/svg" xmlns:xlink="http://www.w3.org/1999/xlink">
<defs>
<symbol id="icon-ellipse" viewBox="0 0 32 32">
<path stroke-linejoin="miter" stroke-linecap="butt" stroke-miterlimit="4" stroke-width="1.7778" d="M31.111 16c0 8.346-6.765 15.111-15.111 15.111s-15.111-6.765-15.111-15.111c0-8.346 6.765-15.111 15.111-15.111s15.111 6.765 15.111 15.111z"></path>
</symbol>
<symbol id="icon-ellipse-accent" viewBox="0 0 32 32">
<path fill="#ff6b09" style="fill: var(--color1, #ff6b09)" d="M32 16c0 8.837-7.163 16-16 16s-16-7.163-16-16c0-8.837 7.163-16 16-16s16 7.163 16 16z"></path>
</symbol>
<symbol id="icon-logo" viewBox="0 0 147 32">
      <path fill="none" stroke="var(--color1, #121d2e)" stroke-width="1.143" d="M147.429 0H0v32h147.429V0z"/>
      <path fill="var(--color1, #121d2e)" d="M69.612 25.486h5.265v-2.373h-2.234V9.668h2.234v-2.37h-5.265v18.187zm10.939-3.772h3.147V10.679h4.352V8.114H76.199v2.565h4.352v11.035zm18.729-5.187a5.64 5.64 0 0 0-.709-2.866 4.825 4.825 0 0 0-1.953-1.889 6.188 6.188 0 0 0-5.625.03 5.098 5.098 0 0 0-2.001 1.913 5.347 5.347 0 0 0-.729 2.768c-.016.977.24 1.939.738 2.778a5.051 5.051 0 0 0 2.098 1.913 6.816 6.816 0 0 0 3.128.686 5.416 5.416 0 0 0 4.313-1.69l-1.613-1.749a3.503 3.503 0 0 1-1.175.768 4.014 4.014 0 0 1-1.448.242 3.354 3.354 0 0 1-1.982-.563 2.462 2.462 0 0 1-1.01-1.535h7.907c.039-.505.058-.777.058-.816l.001.01zm-5.421-3.128a2.555 2.555 0 0 1 1.714.592c.471.404.776.968.855 1.584h-5.153c.074-.62.38-1.189.855-1.593a2.609 2.609 0 0 1 1.729-.583zm11.543 8.471c.902.019 1.8-.122 2.651-.418a3.718 3.718 0 0 0 1.699-1.175 2.76 2.76 0 0 0 .583-1.729 2.513 2.513 0 0 0-.602-1.787 3.148 3.148 0 0 0-1.418-.883c-.69-.194-1.39-.347-2.098-.457a9.288 9.288 0 0 1-1.671-.369.694.694 0 0 1-.525-.685.803.803 0 0 1 .486-.7 3.057 3.057 0 0 1 1.457-.272 6.022 6.022 0 0 1 3.011.777l1.01-2.157a6.212 6.212 0 0 0-1.817-.67 10.165 10.165 0 0 0-2.206-.243 7.158 7.158 0 0 0-2.593.427 3.692 3.692 0 0 0-1.671 1.194 2.856 2.856 0 0 0-.571 1.759 2.545 2.545 0 0 0 .611 1.829c.395.42.894.728 1.447.894.695.198 1.402.347 2.118.447a7.857 7.857 0 0 1 1.613.33.673.673 0 0 1 .524.641c0 .635-.641.952-1.923.952a7.104 7.104 0 0 1-1.943-.281 6.352 6.352 0 0 1-1.69-.729l-1.01 2.171a6.654 6.654 0 0 0 1.983.815c.831.214 1.687.322 2.545.321v-.001zm13.309-2.798a1.952 1.952 0 0 1-1.224.389 1.262 1.262 0 0 1-.962-.359 1.43 1.43 0 0 1-.343-1.021v-4.253h2.603v-2.331h-2.602V8.95h-3.031v2.545h-1.609v2.334h1.613v4.294a3.647 3.647 0 0 0 1.016 2.792 4.07 4.07 0 0 0 2.886.952c.462.002.922-.054 1.371-.166.394-.092.768-.26 1.098-.495l-.816-2.134zm2.233 4.391h9.714v-1.749h-9.714v1.749zm16.473 2.023V7.299h-5.246v2.37h2.215v13.445h-2.215v2.373h5.246zM0 0h52.893l8.816 16.64L52.893 32H0V0z"/>
      <path fill="var(--color2, #fff)" d="M18.356 8.114h-5.887v13.6h3.147v-3.75h2.743a7.643 7.643 0 0 0 3.138-.592 4.578 4.578 0 0 0 2.045-1.715c.49-.782.74-1.69.719-2.613a4.702 4.702 0 0 0-.719-2.618 4.662 4.662 0 0 0-2.049-1.714 7.572 7.572 0 0 0-3.137-.598zm-.174 7.286h-2.565v-4.721h2.565a3.303 3.303 0 0 1 2.161.613 2.152 2.152 0 0 1 .738 1.758 2.133 2.133 0 0 1-.738 1.739 3.302 3.302 0 0 1-2.157.611h-.005zm11.579-2.759v-1.379h-2.895v10.453h3.031V16.78a2.95 2.95 0 0 1 .738-2.185 2.768 2.768 0 0 1 2.04-.73c.117 0 .343.013.68.039v-2.798a5.434 5.434 0 0 0-2.127.389 3.371 3.371 0 0 0-1.466 1.143l-.001.003zm10.857 9.229a6.21 6.21 0 0 0 2.953-.686 5.138 5.138 0 0 0 2.04-1.913 5.27 5.27 0 0 0 .738-2.778 5.267 5.267 0 0 0-.735-2.778 5.138 5.138 0 0 0-2.04-1.913 6.684 6.684 0 0 0-5.916 0 5.124 5.124 0 0 0-2.05 1.913 5.27 5.27 0 0 0-.738 2.778c-.016.977.24 1.939.738 2.778a5.124 5.124 0 0 0 2.05 1.913 6.272 6.272 0 0 0 2.962.686h-.003zm0-2.487a2.56 2.56 0 0 1-1.923-.787 2.913 2.913 0 0 1-.758-2.108 2.917 2.917 0 0 1 .758-2.108 2.543 2.543 0 0 1 1.923-.787 2.534 2.534 0 0 1 1.914.786c.518.577.786 1.335.747 2.109a2.94 2.94 0 0 1-.747 2.109 2.527 2.527 0 0 1-1.915.787v-.002z"/>
    </symbol>
<symbol id="icon-heart-accent" viewBox="0 0 32 32">
<path fill="#ff6b09" style="fill: var(--color1, #ff6b09)" d="M16 30.72l-2.24-2.24c-8.32-7.36-13.76-12.32-13.76-18.4 0-4.96 3.84-8.8 8.8-8.8 2.72 0 5.44 1.28 7.2 3.36 1.76-2.080 4.48-3.36 7.2-3.36 4.96 0 8.8 3.84 8.8 8.8 0 6.080-5.44 11.040-13.76 18.4l-2.24 2.24z"></path>
</symbol>
<symbol id="icon-sign-out" viewBox="0 0 32 32">
<path d="M25.293 9.293l-1.414 1.414 4.293 4.293h-14.172v2h14.172l-4.293 4.293 1.414 1.414 6.707-6.707-6.707-6.707z"></path>
<path d="M22 30h-20v-28h20v2h2v-3c0-0.553-0.447-1-1-1h-22c-0.553 0-1 0.447-1 1v30c0 0.553 0.447 1 1 1h22c0.553 0 1-0.447 1-1v-3h-2v2z"></path>
</symbol>
<symbol id="icon-arrow" viewBox="0 0 32 32">
<path d="M0.195 16.471l10 10c0.26 0.26 0.682 0.26 0.943 0s0.26-0.682 0-0.943l-8.862-8.862h29.057c0.369 0 0.667-0.298 0.667-0.667s-0.298-0.667-0.667-0.667h-29.057l8.862-8.862c0.26-0.26 0.26-0.682 0-0.943-0.13-0.13-0.301-0.195-0.471-0.195s-0.341 0.065-0.471 0.195l-10 10c-0.26 0.26-0.26 0.682 0 0.943z"></path>
</symbol>
<symbol id="icon-heart-b" viewBox="0 0 32 32">
<path d="M16 30.72l-2.24-2.24c-8.32-7.36-13.76-12.32-13.76-18.4 0-4.96 3.84-8.8 8.8-8.8 2.72 0 5.44 1.28 7.2 3.36 1.76-2.080 4.48-3.36 7.2-3.36 4.96 0 8.8 3.84 8.8 8.8 0 6.080-5.44 11.040-13.76 18.4l-2.24 2.24z"></path>
</symbol>
<symbol id="icon-close" viewBox="0 0 32 32">
<path d="M31.166 3.888l-3.055-3.055-12.112 12.112-12.112-12.112-3.055 3.055 12.112 12.112-12.112 12.112 3.055 3.055 12.112-12.112 12.112 12.112 3.055-3.055-12.112-12.112 12.112-12.112z"></path>
</symbol>
<symbol id="icon-google" viewBox="0 0 32 32">
<path fill="#2196f3" style="fill: var(--color4, #2196f3)" d="M31.743 13.038c0.142 0 0.257 0.115 0.257 0.258v2.704c0 1.012-0.094 2.002-0.274 2.962-1.395 7.457-7.964 13.092-15.838 13.038-8.836-0.061-15.907-7.2-15.887-16.036 0.019-8.82 7.176-15.964 16-15.964 4.323 0 8.246 1.715 11.126 4.501 0.104 0.101 0.107 0.266 0.004 0.369l-3.826 3.826c-0.099 0.098-0.258 0.101-0.358 0.005-1.808-1.721-4.253-2.777-6.946-2.777-5.561 0-10.039 4.446-10.076 10.007-0.038 5.597 4.488 10.146 10.076 10.146 4.534 0 8.369-2.995 9.634-7.115h-9.376c-0.142 0-0.258-0.115-0.258-0.258v-5.408c0-0.142 0.115-0.258 0.258-0.258l15.485 0z"></path>
<path fill="#1e88e5" style="fill: var(--color5, #1e88e5)" d="M31.742 13.038h-1.932c0.142 0 0.258 0.115 0.258 0.258v2.704c0 1.012-0.094 2.002-0.274 2.962-1.331 7.114-7.371 12.57-14.761 13.009 0.283 0.017 0.567 0.026 0.854 0.028 7.874 0.054 14.444-5.581 15.839-13.038 0.18-0.96 0.274-1.95 0.274-2.962v-2.704c0-0.142-0.115-0.258-0.258-0.258z"></path>
<path fill="#f44336" style="fill: var(--color6, #f44336)" d="M6.848 11.78l-4.859-3.511c2.726-4.931 7.979-8.269 14.012-8.269 4.323 0 8.246 1.715 11.126 4.501 0.104 0.101 0.107 0.266 0.004 0.369l-3.826 3.826c-0.098 0.098-0.257 0.101-0.358 0.005-1.808-1.721-4.253-2.777-6.946-2.777-4.058 0-7.556 2.399-9.152 5.857z"></path>
<path fill="#e53935" style="fill: var(--color7, #e53935)" d="M5.445 10.767l1.403 1.014c1.457-3.156 4.499-5.429 8.104-5.802 0.027-0.003 0.053-0.006 0.081-0.009-0.317-0.030-0.639-0.046-0.964-0.046-3.666 0-6.861 1.933-8.624 4.843z"></path>
<path fill="#e53935" style="fill: var(--color7, #e53935)" d="M25.194 4.501c0.104 0.101 0.107 0.266 0.004 0.369l-3.105 3.105c0.297 0.226 0.582 0.468 0.852 0.726 0.101 0.096 0.26 0.094 0.359-0.005l3.826-3.826c0.102-0.102 0.1-0.268-0.004-0.369-2.88-2.786-6.803-4.501-11.126-4.501-0.324 0-0.646 0.011-0.966 0.030 3.94 0.235 7.496 1.894 10.16 4.471z"></path>
<path fill="#4caf50" style="fill: var(--color8, #4caf50)" d="M27.737 26.874c-2.922 3.153-7.099 5.126-11.737 5.126-6.264 0-11.687-3.6-14.314-8.844l4.961-3.4c1.489 3.704 5.116 6.32 9.353 6.32 2.659 0 5.078-1.030 6.878-2.713l4.859 3.51z"></path>
<path fill="#43a047" style="fill: var(--color9, #43a047)" d="M6.647 19.756l-1.463 1.003c1.699 3.165 5.040 5.318 8.884 5.318 0.325 0 0.646-0.016 0.964-0.046-3.816-0.364-7.011-2.855-8.385-6.274z"></path>
<path fill="#43a047" style="fill: var(--color9, #43a047)" d="M16 32c4.638 0 8.815-1.973 11.737-5.126l-1.19-0.86c-2.743 3.414-6.859 5.679-11.51 5.957 0.319 0.019 0.64 0.029 0.963 0.029z"></path>
<path fill="#ffc107" style="fill: var(--color10, #ffc107)" d="M5.924 16c0 1.328 0.257 2.595 0.724 3.756l-4.961 3.4c-1.079-2.153-1.686-4.584-1.686-7.156 0-2.804 0.721-5.439 1.988-7.731l4.859 3.511c-0.593 1.283-0.924 2.713-0.924 4.22z"></path>
<path fill="#ffb300" style="fill: var(--color11, #ffb300)" d="M5.184 20.759l1.463-1.003c-0.467-1.161-0.724-2.429-0.724-3.756 0-1.507 0.331-2.937 0.924-4.22l-1.403-1.014c-0.911 1.504-1.44 3.269-1.452 5.164-0.012 1.747 0.421 3.392 1.192 4.829z"></path>
</symbol>
<symbol id="icon-menu" viewBox="0 0 32 32">
<path d="M4 24h24v-2.667h-24v2.667zM4 17.333h24v-2.667h-24v2.667zM4 8v2.667h24v-2.667h-24z"></path>
</symbol>
<symbol id="plus" viewBox="0 0 50 50">
<path fill="#CCCCCC" style="fill: var(--admin-svg)" d="M 25 2 C 12.309295 2 2 12.309295 2 25 C 2 37.690705 12.309295 48 25 48 C 37.690705 48 48 37.690705 48 25 C 48 12.309295 37.690705 2 25 2 z M 25 4 C 36.609824 4 46 13.390176 46 25 C 46 36.609824 36.609824 46 25 46 C 13.390176 46 4 36.609824 4 25 C 4 13.390176 13.390176 4 25 4 z M 24 13 L 24 24 L 13 24 L 13 26 L 24 26 L 24 37 L 26 37 L 26 26 L 37 26 L 37 24 L 26 24 L 26 13 L 24 13 z"/>
</symbol>
</defs>
</svg>
